<svg xmlns="http://www.w3.org/2000/svg" version="1.1" xmlns:xlink="http://www.w3.org/1999/xlink" xmlns:svgjs="http://svgjs.dev/svgjs" width="1000" height="1000" viewBox="0 0 1000 1000"><rect width="1000" height="1000" fill="#ffffff"></rect><g transform="matrix(0.7,0,0,0.7,150,150)"><svg viewBox="0 0 280 280" data-background-color="#ffffff" preserveAspectRatio="xMidYMid meet" height="1000" width="1000" xmlns="http://www.w3.org/2000/svg" xmlns:xlink="http://www.w3.org/1999/xlink"><g id="tight-bounds" transform="matrix(1,0,0,1,0,0)"><svg viewBox="0 0 280 280" height="280" width="280"><g><svg viewBox="0 0 280 280" height="280" width="280"><g><svg viewBox="0 0 280 280" height="280" width="280"><g id="textblocktransform"><svg viewBox="0 0 280 280" height="280" width="280" id="textblock"><g><svg viewBox="0 0 280 280" height="280" width="280"><g transform="matrix(1,0,0,1,90.50252531694167,115.19008354537326)"><svg viewBox="0 0 98.99494936611666 49.619832909253496" height="49.619832909253496" width="98.99494936611666"><g><svg xmlns="http://www.w3.org/2000/svg" xmlns:xlink="http://www.w3.org/1999/xlink" xml:space="preserve" style="shape-rendering:geometricPrecision;text-rendering:geometricPrecision;image-rendering:optimizeQuality;" viewBox="0.0000020265579223632812 0.0000027120113372802734 14.727499008178711 7.38195276260376" x="0" y="0" fill-rule="evenodd" clip-rule="evenodd" width="98.99494936611666" height="49.619832909253496" class="icon-o-0" data-fill-palette-color="accent" id="o-0"><g fill="#50a060" data-fill-palette-color="accent"><path class="" d="M1.757 3.091c-0.313 0.444-0.296 1.331-0.417 1.95-0.153 0.784-0.711 1.203-1.34 1.534 0.188-0.771 0.348-1.542 0.412-2.313 0.078-0.953-0.06-0.891 0.767-1.575 1.159-0.961 3.04-1.741 5.848-2.29 2.456-0.406 5.049-0.453 7.701-0.351-0.89 1.809-3.733 1.961-7.203 1.581-1.811 0.02-3.495-0.488-5.768 1.464z m8.33 2.781c-3.895 2.038-7.803-2.284-9.165 0.688 2.104-1.831 5.079 3.183 9.165-0.688z m2.489-2.547c-4.49 2.72-9.502-0.792-10.907 1.859 3.412-1.235 7.765 2.753 10.907-1.859z m0.834-1.478c-3.944 1.761-10.043-1.402-11.565 2.239 3.106-1.808 8.446 1.438 11.565-2.239z" fill="#50a060" data-fill-palette-color="accent"></path></g></svg></g></svg></g><path d="M9.981 184l26.318-9.287 1.154 3.271-11.608 4.096 4.601 13.037 11.608-4.096 1.138 3.224-26.319 9.287-1.138-3.224 11.9-4.199-4.6-13.037-11.9 4.199zM38.771 236.012l-10.269-13.791 22.386-16.667 10.268 13.791-2.39 1.779-8.197-11.008-7.515 5.595 7.72 10.369-2.39 1.78-7.721-10.369-7.667 5.709 8.197 11.009zM54.645 250.057l-2.95-2.147 24.186-16.914 3.417 2.487-8.851 28.078-2.941-2.142 2.302-7.176-8.977-6.535zM75.046 235.615l-11.902 8.423 7.542 5.491zM90.208 270.742l-3.246-1.222 9.829-26.121 9.115 3.43c2.979 1.121 4.965 2.682 5.959 4.682 1.003 1.996 1.068 4.151 0.198 6.464v0c-0.861 2.289-2.328 3.856-4.4 4.702-2.064 0.842-4.585 0.703-7.564-0.418v0l-5.868-2.208zM105.806 276.612l-4.198-1.58-3.029-14.676 3.535 1.33zM98.988 247.41l-3.897 10.355 5.616 2.114c1.953 0.735 3.621 0.812 5.004 0.232 1.383-0.58 2.363-1.638 2.941-3.174v0c0.597-1.586 0.581-3.026-0.047-4.321-0.628-1.294-1.878-2.293-3.749-2.997v0zM132.858 254.957l-9.871-0.575 0.173-2.975 21.693 1.264-0.174 2.975-9.911-0.578 0.823-0.761-1.497 25.693-3.462-0.202 1.497-25.692zM155.324 251.389l3.416-0.601 4.309 24.513 12.252-2.153 0.523 2.974-15.668 2.754zM194.885 269.186l-3.236 1.25-10.057-26.034 3.236-1.25zM229.277 247.598l-16.754 11.802-1.791-2.542 0.864-28.492 0.74 1.051-14.066 9.75-1.819-2.583 16.753-11.802 1.791 2.542-0.831 27.604-0.553-0.318 13.846-9.595zM253.746 219.938l-10.84 13.347-21.664-17.596 10.841-13.346 2.313 1.879-8.654 10.653 7.273 5.908 8.151-10.035 2.313 1.879-8.15 10.035 7.419 6.026 8.654-10.654zM264.668 198.338l-1.329 3.203-25.778-10.697 3.733-8.994c1.22-2.94 2.846-4.873 4.878-5.8 2.028-0.935 4.184-0.929 6.467 0.018v0c2.259 0.937 3.776 2.455 4.552 4.555 0.773 2.091 0.549 4.606-0.67 7.546v0l-2.403 5.791zM271.056 182.945l-1.719 4.143-14.769 2.537 1.448-3.49zM241.643 188.783l10.219 4.241 2.3-5.543c0.8-1.927 0.933-3.591 0.399-4.992-0.534-1.401-1.558-2.417-3.074-3.046v0c-1.565-0.649-3.005-0.682-4.319-0.098-1.314 0.584-2.355 1.8-3.122 3.647v0z" fill="#50a060" data-fill-palette-color="primary"></path><path d="M31.035 110.226L4.716 100.939 5.87 97.668 17.479 101.764 22.079 88.727 10.471 84.631 11.609 81.407 37.927 90.694 36.789 93.918 24.89 89.719 20.289 102.756 32.189 106.955ZM56.825 63.844L46.556 77.635 24.171 60.967 34.44 47.176 36.83 48.956 28.633 59.965 36.148 65.56 43.869 55.191 46.259 56.971 38.539 67.34 46.206 73.049 54.402 62.04ZM68.153 54.296L65.204 56.443 56.538 28.23 59.955 25.743 83.955 42.792 81.014 44.933 74.892 40.538 65.915 47.073ZM60.677 30.445L65.037 44.359 72.579 38.868ZM98.685 36.324L95.439 37.546 85.609 11.425 94.723 7.995C97.702 6.874 100.225 6.738 102.291 7.587 104.36 8.426 105.831 10.003 106.701 12.317V12.317C107.563 14.605 107.493 16.751 106.493 18.753 105.497 20.747 103.509 22.304 100.53 23.425V23.425L94.662 25.633ZM114.283 30.454L110.085 32.034 98.132 22.996 101.668 21.666ZM89.905 12.993L93.802 23.348 99.418 21.235C101.371 20.5 102.676 19.458 103.333 18.11 103.99 16.763 104.03 15.321 103.452 13.785V13.785C102.855 12.199 101.894 11.126 100.569 10.567 99.244 10.008 97.645 10.08 95.773 10.785V10.785ZM132.176 3.664L122.305 4.239 122.131 1.264 143.824 0 143.997 2.975 134.086 3.553 134.815 2.702 136.313 28.394 132.85 28.596 131.353 2.903ZM162.282 1.745L165.699 2.345 161.389 26.858 173.641 29.012 173.118 31.986 157.45 29.232ZM188.194 37.814L184.958 36.564 195.015 10.53 198.25 11.78ZM217.998 56.947L201.244 45.146 203.035 42.603 230.154 33.823 229.413 34.874 215.497 24.912 217.316 22.329 234.07 34.131 232.279 36.673 206.008 45.185 206.12 44.557 219.817 54.364ZM238.202 80.625L227.362 67.279 249.025 49.683 259.866 63.03 257.552 64.908 248.899 54.255 241.626 60.162 249.777 70.197 247.463 72.076 239.313 62.041 231.893 68.067 240.546 78.721ZM245.986 96.964L244.657 93.76 270.435 83.063 274.167 92.058C275.387 94.998 275.607 97.514 274.829 99.607 274.058 101.704 272.532 103.226 270.248 104.173V104.173C267.99 105.111 265.843 105.113 263.809 104.18 261.783 103.251 260.16 101.317 258.94 98.377V98.377L256.537 92.586ZM252.374 112.357L250.655 108.214 259.288 95.966 260.736 99.455ZM269.011 87.409L258.792 91.65 261.092 97.192C261.892 99.119 262.976 100.389 264.345 101.001 265.714 101.612 267.157 101.604 268.673 100.975V100.975C270.238 100.325 271.278 99.329 271.792 97.986 272.307 96.643 272.181 95.048 271.414 93.2V93.2Z" fill="#50a060" data-fill-palette-color="primary"></path><path d="M3.755 143.571c0-5.888 4.773-10.661 10.662-10.661 5.888 0 10.661 4.773 10.661 10.661 0 5.888-4.773 10.661-10.661 10.662-5.888 0-10.661-4.773-10.662-10.662zM254.941 143.571c0-5.888 4.773-10.661 10.661-10.661 5.888 0 10.661 4.773 10.662 10.661 0 5.888-4.773 10.661-10.662 10.662-5.888 0-10.661-4.773-10.661-10.662z" fill="#50a060" data-fill-palette-color="primary"></path></svg></g></svg></g></svg></g></svg></g><defs></defs></svg><rect width="280" height="280" fill="none" stroke="none" visibility="hidden"></rect></g></svg></g></svg>